# xmcd CD database file
#
# Track frame offsets:
#	150
#	20805
#	40034
#	69316
#	95853
#	112215
#	140134
#	161616
#	181326
#	196001
#	215542
#	235975
#	256012
#
# Disc length: 3693 seconds
#
# Revision: 0
# Processed by: cddbd v1.4PL0 Copyright (c) Steve Scherf et al.
# Submitted via: Feurio! 1.63 - http://www.feurio.com
#
DISCID=bc0e6b0d
DTITLE=Paint it Blue - The Songs Of The Rolling Stones
DYEAR=1900
DGENRE=
TTITLE0=Luther Allison - You Can't Always Get You Want
TTITLE1=Johnny Copeland - Tumblin' Dice
TTITLE2=Otiy Clay - Wild Horses
TTITLE3=Junior Wells - (I Can't Get No) Satisfaction
TTITLE4=Alvin 'Youngblood' Brown - Sway
TTITLE5=Clarence Gatemoutn' Brown and Larry McCrey - Ventilator Blues
TTITLE6=Wendell Holms - Beast Of Burden
TTITLE7=Lucky Peterson - Under My Thumb
TTITLE8=Bobby Womack - It's All Over Now
TTITLE9=Larry McCray - Midnight Rambler
TTITLE10=Joe Louis Walker - Heart Of Stone
TTITLE11=Alvin 'Youngblood' Hart - Moonlight Mile
TTITLE12=Taj Mahal and James Cotton - Honky Tonk Woman
EXTD=
EXTT0=
EXTT1=
EXTT2=
EXTT3=
EXTT4=
EXTT5=
EXTT6=
EXTT7=
EXTT8=
EXTT9=
EXTT10=
EXTT11=
EXTT12=
PLAYORDER=
